<?xml version="1.0" standalone="no"?>
<!DOCTYPE svg PUBLIC "-//W3C//DTD SVG 20010904//EN"
 "http://www.w3.org/TR/2001/REC-SVG-20010904/DTD/svg10.dtd">
<svg version="1.0" xmlns="http://www.w3.org/2000/svg"
 width="354.000000pt" height="354.000000pt" viewBox="0 0 354.000000 354.000000"
 preserveAspectRatio="xMidYMid meet">
<metadata>
Created by potrace 1.11, written by Peter Selinger 2001-2013
</metadata>
<g transform="translate(0.000000,354.000000) scale(0.100000,-0.100000)"
fill="#000000" stroke="none">
<path d="M207 3332 l-27 -28 0 -1534 0 -1534 27 -28 27 -28 1536 0 1536 0 27
28 27 28 0 1535 0 1535 -28 27 -28 27 -1535 0 -1535 0 -27 -28z m883 -1191
l175 -428 3 428 2 429 129 0 129 0 183 -547 182 -546 117 344 c65 189 149 434
187 544 l69 200 305 3 c408 4 482 -10 574 -109 62 -67 87 -127 88 -214 1 -58
-3 -81 -26 -127 -25 -52 -106 -138 -128 -138 -23 0 -5 -17 35 -33 64 -27 121
-80 153 -145 24 -49 28 -68 27 -142 -1 -114 -29 -186 -98 -256 -98 -97 -182
-114 -578 -114 l-288 0 -2 525 -3 525 -164 -473 c-90 -259 -173 -496 -183
-525 l-20 -53 -76 3 -77 3 -180 530 -180 530 -3 -532 -2 -533 -98 0 -97 0 -76
198 -76 197 -266 3 -265 2 -20 -52 c-11 -29 -44 -119 -73 -200 l-53 -148 -88
0 c-48 0 -88 3 -88 6 0 7 479 1254 487 1267 2 4 46 7 96 7 l92 0 175 -429z"/>
<path d="M791 2338 c-13 -51 -57 -180 -97 -286 -41 -106 -74 -198 -74 -203 0
-5 86 -9 205 -9 113 0 205 2 205 5 0 2 -40 111 -89 242 -48 131 -96 262 -105
291 -10 28 -18 52 -19 52 -1 0 -13 -42 -26 -92z"/>
<path d="M2500 2226 l0 -196 185 0 c101 0 207 5 235 11 59 13 116 57 136 106
29 69 7 170 -47 220 -45 41 -76 46 -296 51 l-213 4 0 -196z"/>
<path d="M2500 1660 l0 -220 208 0 c234 0 288 10 346 61 74 64 88 199 30 281
-57 81 -126 98 -395 98 l-189 0 0 -220z"/>
</g>
</svg>
