<svg xmlns="http://www.w3.org/2000/svg" viewBox="0 0 298 337.4"><style>.a{fill:#EBEBEB;}.b{fill:#FFF;}</style><path d="M27.4 303.6L0.3 0h297.5l-27.1 303.6 -121.8 33.8L27.4 303.6z" fill="#E44F26"/><path d="M149 311.5l98.4-27.3 23.2-259.4H149V311.5z" fill="#F1662A"/><polygon points="149 62.1 148.9 62.1 55.7 62.1 56.6 72.1 65.7 174.7 149 174.7 149 137.4 99.8 137.4 96.4 99.3 149 99.3 " class="a"/><polygon points="107.4 223 104.8 193.3 84.6 193.3 67.4 193.3 72.6 251.8 148.9 272.9 149 272.9 149 234.1 148.9 234.2 " class="a"/><polygon points="148.9 137.4 148.9 174.7 194.8 174.7 190.4 223 148.9 234.2 148.9 272.9 225.2 251.8 225.8 245.5 234.6 147.4 235.5 137.4 225.4 137.4 " class="b"/><polygon points="148.9 62.1 148.9 85.2 148.9 99.2 148.9 99.3 238.7 99.3 238.9 99.3 239.6 90.9 241.3 72.1 242.2 62.1 " class="b"/></svg>