<svg xmlns="http://www.w3.org/2000/svg" viewBox="0 0 331.21649484536084 512" clip-path="url(#clip)" width="509.1159793814433" height="787"><defs><clipPath id="clip" clipPathUnits="objectBoundingBox"><rect x="0" y="0" width="331.21649484536084" height="512"/></clipPath></defs><rect x="0" y="0" width="331.21649484536084" height="512" fill="rgb(3, 4, 4)"/><path d="M135,44L221,44L221,264L135,264Z" fill="rgb(142, 117, 113)" fill-opacity="0.71"/><path d="M12,208L324,208L324,453L12,453Z" fill="rgb(50, 52, 68)" fill-opacity="0.42"/><path d="M61,377L134,377L134,402L61,402Z" fill="rgb(238, 191, 171)" fill-opacity="0.45"/><path d="M180,186L203,186L203,247L180,247Z" fill="rgb(195, 226, 254)" fill-opacity="0.50"/><ellipse cx="148" cy="194" rx="11" ry="20" fill="rgb(192, 219, 233)" fill-opacity="0.47"/><path d="M255,332L289,332L289,367L255,367Z" fill="rgb(235, 156, 143)" fill-opacity="0.44"/><path d="M118,61L236,61L236,125L118,125Z" fill="rgb(132, 85, 68)" fill-opacity="0.49"/><path d="M197,225L245,225L245,442L197,442Z" fill="rgb(14, 16, 23)" fill-opacity="0.71"/><ellipse cx="201" cy="91" rx="15" ry="10" fill="rgb(19, 8, 1)" fill-opacity="0.58"/><path d="M215,135L223,135L223,388L215,388Z" fill="rgb(17, 20, 28)" fill-opacity="0.87"/><path d="M-17,-4L141,-4L141,86L-17,86Z" fill="rgb(0, 0, 0)" fill-opacity="0.55"/><ellipse cx="204" cy="187" rx="13" ry="19" fill="rgb(173, 184, 198)" fill-opacity="0.71"/><ellipse cx="139" cy="181" rx="9" ry="12" fill="rgb(165, 177, 185)" fill-opacity="0.62"/><path d="M-14,408L324,408L324,458L-14,458Z" fill="rgb(13, 12, 14)" fill-opacity="0.88"/><path d="M66,203L143,203L143,316L66,316Z" fill="rgb(22, 26, 36)" fill-opacity="0.93"/><ellipse cx="260" cy="361" rx="16" ry="12" fill="rgb(156, 109, 98)" fill-opacity="0.55"/><path d="M210,199L264,199L264,344L210,344Z" fill="rgb(20, 22, 31)" fill-opacity="0.93"/><path d="M148,187L162,187L162,253L148,253Z" fill="rgb(155, 173, 188)" fill-opacity="0.55"/><ellipse cx="170" cy="250" rx="9" ry="51" fill="rgb(27, 33, 42)" fill-opacity="0.85"/><ellipse cx="169" cy="58" rx="24" ry="19" fill="rgb(159, 111, 95)" fill-opacity="0.54"/><path d="M149,77L180,77L180,179L149,179Z" fill="rgb(97, 61, 48)" fill-opacity="0.77"/><path d="M182,461L247,447L188,437Z" fill="rgb(186, 124, 86)" fill-opacity="0.41"/><path d="M119,101L235,101L235,120L119,120Z" fill="rgb(193, 141, 126)" fill-opacity="0.35"/><ellipse cx="159" cy="87" rx="17" ry="10" fill="rgb(11, 9, 5)" fill-opacity="0.51"/><ellipse cx="57" cy="403" rx="19" ry="11" fill="rgb(16, 16, 22)" fill-opacity="0.89"/><path d="M-12,118L137,118L137,165L-12,165Z" fill="rgb(0, 0, 0)" fill-opacity="0.72"/><ellipse cx="185" cy="165" rx="21" ry="27" fill="rgb(100, 54, 35)" fill-opacity="0.46"/><ellipse cx="229" cy="161" rx="17" ry="25" fill="rgb(0, 0, 0)" fill-opacity="0.87"/><path d="M-15,301L36,301L36,417L-15,417Z" fill="rgb(18, 20, 26)" fill-opacity="1.00"/><path d="M181,223L183,279L202,220Z" fill="rgb(163, 180, 204)" fill-opacity="0.86"/><ellipse cx="292" cy="343" rx="5" ry="5" fill="rgb(195, 126, 131)" fill-opacity="0.64"/><path d="M56,333L246,333L246,369L56,369Z" fill="rgb(3, 2, 5)" fill-opacity="0.40"/><ellipse cx="110" cy="371" rx="24" ry="11" fill="rgb(27, 29, 36)" fill-opacity="0.76"/><path d="M181,3L237,3L237,51L181,51Z" fill="rgb(22, 18, 19)" fill-opacity="0.55"/><ellipse cx="139" cy="257" rx="12" ry="32" fill="rgb(22, 25, 33)" fill-opacity="0.91"/><path d="M202,219L319,219L319,297L202,297Z" fill="rgb(22, 26, 37)" fill-opacity="0.75"/><ellipse cx="326" cy="364" rx="5" ry="42" fill="rgb(26, 29, 38)" fill-opacity="0.87"/><path d="M-6,-10L27,-10L27,242L-6,242Z" fill="rgb(0, 0, 0)" fill-opacity="0.89"/><ellipse cx="170" cy="213" rx="19" ry="11" fill="rgb(54, 54, 54)" fill-opacity="0.51"/><ellipse cx="236" cy="76" rx="11" ry="25" fill="rgb(8, 9, 11)" fill-opacity="0.69"/><ellipse cx="155" cy="251" rx="3" ry="19" fill="rgb(152, 177, 209)" fill-opacity="0.66"/><path d="M194,240L248,240L248,300L194,300Z" fill="rgb(24, 28, 39)" fill-opacity="0.76"/><ellipse cx="198" cy="198" rx="13" ry="15" fill="rgb(186, 206, 224)" fill-opacity="0.56"/><ellipse cx="124" cy="400" rx="12" ry="9" fill="rgb(90, 59, 47)" fill-opacity="0.72"/><ellipse cx="319" cy="203" rx="30" ry="21" fill="rgb(0, 0, 0)" fill-opacity="0.98"/><ellipse cx="223" cy="36" rx="15" ry="20" fill="rgb(15, 15, 16)" fill-opacity="0.87"/><ellipse cx="221" cy="112" rx="14" ry="15" fill="rgb(153, 121, 105)" fill-opacity="0.46"/><ellipse cx="89" cy="389" rx="24" ry="7" fill="rgb(161, 141, 135)" fill-opacity="0.68"/><ellipse cx="189" cy="64" rx="36" ry="17" fill="rgb(158, 116, 103)" fill-opacity="0.48"/><path d="M238,-13L350,-13L350,200L238,200Z" fill="rgb(0, 0, 0)" fill-opacity="0.97"/><ellipse cx="139" cy="42" rx="16" ry="12" fill="rgb(33, 24, 22)" fill-opacity="0.58"/><path d="M35,432L183,432L183,512L35,512Z" fill="rgb(7, 7, 9)" fill-opacity="0.76"/><ellipse cx="164" cy="195" rx="28" ry="5" fill="rgb(159, 158, 166)" fill-opacity="0.46"/><ellipse cx="118" cy="202" rx="21" ry="14" fill="rgb(20, 21, 26)" fill-opacity="1.00"/><ellipse cx="250" cy="331" rx="16" ry="18" fill="rgb(6, 4, 6)" fill-opacity="0.59"/><ellipse cx="179" cy="167" rx="16" ry="4" fill="rgb(10, 10, 5)" fill-opacity="0.49"/><path d="M253,252L279,252L279,334L253,334Z" fill="rgb(3, 2, 5)" fill-opacity="0.36"/><ellipse cx="182" cy="107" rx="7" ry="14" fill="rgb(192, 147, 144)" fill-opacity="0.45"/><path d="M214,194L239,194L239,249L214,249Z" fill="rgb(26, 30, 42)" fill-opacity="0.91"/><path d="M131,101L142,173L144,50Z" fill="rgb(118, 89, 71)" fill-opacity="0.80"/><ellipse cx="60" cy="380" rx="4" ry="8" fill="rgb(127, 99, 97)" fill-opacity="0.75"/><ellipse cx="184" cy="136" rx="34" ry="6" fill="rgb(84, 52, 41)" fill-opacity="0.73"/><ellipse cx="97" cy="397" rx="16" ry="9" fill="rgb(130, 112, 104)" fill-opacity="0.47"/><ellipse cx="180" cy="184" rx="21" ry="11" fill="rgb(137, 92, 85)" fill-opacity="0.41"/><ellipse cx="313" cy="455" rx="33" ry="16" fill="rgb(0, 0, 0)" fill-opacity="0.96"/><ellipse cx="116" cy="375" rx="5" ry="2" fill="rgb(236, 241, 250)" fill-opacity="0.42"/><ellipse cx="199" cy="272" rx="10" ry="27" fill="rgb(27, 31, 43)" fill-opacity="1.00"/><ellipse cx="222" cy="94" rx="2" ry="25" fill="rgb(156, 127, 108)" fill-opacity="0.64"/><path d="M197,370L325,370L325,412L197,412Z" fill="rgb(16, 18, 26)" fill-opacity="0.62"/><ellipse cx="131" cy="155" rx="8" ry="14" fill="rgb(1, 1, 1)" fill-opacity="1.00"/><ellipse cx="208" cy="187" rx="10" ry="11" fill="rgb(177, 199, 217)" fill-opacity="0.53"/><text text-anchor="middle" dominant-baseline="central" font-size="16" font-family="sans-serif" x="248" y="366" fill="rgb(156, 108, 98)" fill-opacity="0.52">☺</text><ellipse cx="202" cy="121" rx="12" ry="12" fill="rgb(146, 103, 91)" fill-opacity="0.88"/><path d="M226,117L232,110L227,51Z" fill="rgb(6, 2, 5)" fill-opacity="0.46"/><ellipse cx="162" cy="212" rx="4" ry="25" fill="rgb(177, 190, 200)" fill-opacity="0.25"/><path d="M148,205L157,274L143,211Z" fill="rgb(162, 175, 191)" fill-opacity="0.67"/><ellipse cx="190" cy="217" rx="4" ry="6" fill="rgb(91, 88, 89)" fill-opacity="0.79"/><ellipse cx="121" cy="101" rx="4" ry="13" fill="rgb(130, 80, 66)" fill-opacity="0.70"/><path d="M261,365L298,365L298,391L261,391Z" fill="rgb(25, 28, 40)" fill-opacity="0.45"/><path d="M242,396L284,396L284,515L242,515Z" fill="rgb(10, 10, 13)" fill-opacity="0.80"/><ellipse cx="263" cy="354" rx="5" ry="15" fill="rgb(157, 113, 105)" fill-opacity="0.54"/><path d="M129,391L138,379L100,386Z" fill="rgb(229, 187, 177)" fill-opacity="0.41"/><ellipse cx="202" cy="70" rx="17" ry="10" fill="rgb(160, 122, 113)" fill-opacity="0.56"/><ellipse cx="69" cy="381" rx="13" ry="7" fill="rgb(143, 111, 105)" fill-opacity="0.72"/><path d="M5,-14L56,-14L56,213L5,213Z" fill="rgb(0, 0, 0)" fill-opacity="0.88"/><path d="M159,242L181,242L181,350L159,350Z" fill="rgb(23, 27, 36)" fill-opacity="0.62"/><ellipse cx="155" cy="54" rx="11" ry="17" fill="rgb(127, 87, 70)" fill-opacity="0.37"/><path d="M54,278L69,278L69,333L54,333Z" fill="rgb(0, 0, 3)" fill-opacity="0.39"/><ellipse cx="151" cy="155" rx="12" ry="20" fill="rgb(146, 98, 65)" fill-opacity="0.31"/><ellipse cx="180" cy="224" rx="2" ry="8" fill="rgb(167, 191, 217)" fill-opacity="0.54"/><ellipse cx="113" cy="128" rx="14" ry="16" fill="rgb(0, 0, 0)" fill-opacity="0.74"/><ellipse cx="80" cy="362" rx="30" ry="13" fill="rgb(5, 4, 7)" fill-opacity="0.62"/><ellipse cx="139" cy="35" rx="7" ry="17" fill="rgb(15, 13, 13)" fill-opacity="0.99"/><ellipse cx="172" cy="206" rx="12" ry="5" fill="rgb(5, 8, 10)" fill-opacity="0.48"/><ellipse cx="217" cy="219" rx="11" ry="23" fill="rgb(27, 32, 44)" fill-opacity="0.74"/><ellipse cx="155" cy="115" rx="19" ry="15" fill="rgb(132, 90, 75)" fill-opacity="0.78"/><path d="M120,219L145,219L145,378L120,378Z" fill="rgb(21, 24, 32)" fill-opacity="0.83"/><ellipse cx="174" cy="12" rx="37" ry="12" fill="rgb(23, 23, 27)" fill-opacity="0.43"/><path d="M22,220L134,220L134,273L22,273Z" fill="rgb(25, 29, 41)" fill-opacity="0.49"/><ellipse cx="8" cy="239" rx="11" ry="36" fill="rgb(0, 0, 0)" fill-opacity="1.00"/><ellipse cx="164" cy="163" rx="10" ry="4" fill="rgb(52, 40, 31)" fill-opacity="0.61"/><path d="M182,266L194,246L204,184Z" fill="rgb(192, 208, 228)" fill-opacity="0.46"/><ellipse cx="201" cy="160" rx="10" ry="17" fill="rgb(128, 92, 70)" fill-opacity="0.58"/><ellipse cx="130" cy="90" rx="4" ry="9" fill="rgb(1, 4, 7)" fill-opacity="0.58"/><ellipse cx="218" cy="438" rx="15" ry="6" fill="rgb(5, 5, 6)" fill-opacity="0.61"/><path d="M265,284L298,284L298,328L265,328Z" fill="rgb(0, 3, 8)" fill-opacity="0.26"/><ellipse cx="203" cy="99" rx="15" ry="8" fill="rgb(61, 36, 26)" fill-opacity="0.46"/><ellipse cx="283" cy="334" rx="5" ry="5" fill="rgb(182, 116, 125)" fill-opacity="0.53"/><ellipse cx="225" cy="135" rx="7" ry="9" fill="rgb(0, 0, 0)" fill-opacity="0.80"/><ellipse cx="292" cy="378" rx="11" ry="19" fill="rgb(18, 21, 30)" fill-opacity="1.00"/><ellipse cx="183" cy="150" rx="11" ry="2" fill="rgb(38, 24, 12)" fill-opacity="0.49"/><path d="M283,226L319,226L319,270L283,270Z" fill="rgb(31, 37, 50)" fill-opacity="0.41"/><path d="M29,-1L117,-1L117,188L29,188Z" fill="rgb(0, 0, 0)" fill-opacity="1.00"/><ellipse cx="127" cy="64" rx="10" ry="28" fill="rgb(12, 13, 15)" fill-opacity="0.57"/><ellipse cx="309" cy="321" rx="17" ry="21" fill="rgb(25, 31, 43)" fill-opacity="0.63"/><path d="M241,367L244,375L277,324Z" fill="rgb(164, 120, 113)" fill-opacity="0.41"/><path d="M171,458L250,458L250,539L171,539Z" fill="rgb(5, 5, 7)" fill-opacity="0.91"/><ellipse cx="240" cy="444" rx="8" ry="2" fill="rgb(105, 68, 52)" fill-opacity="0.68"/><path d="M246,372L293,338L293,347Z" fill="rgb(171, 124, 120)" fill-opacity="0.62"/><ellipse cx="326" cy="218" rx="9" ry="35" fill="rgb(0, 0, 0)" fill-opacity="1.00"/><ellipse cx="106" cy="204" rx="20" ry="10" fill="rgb(21, 22, 29)" fill-opacity="0.59"/><path d="M136,370L199,370L199,387L136,387Z" fill="rgb(24, 30, 42)" fill-opacity="0.59"/><path d="M263,207L248,101L213,148Z" fill="rgb(0, 0, 0)" fill-opacity="0.94"/><ellipse cx="139" cy="404" rx="6" ry="25" fill="rgb(22, 23, 31)" fill-opacity="0.85"/><ellipse cx="156" cy="239" rx="7" ry="8" fill="rgb(161, 178, 206)" fill-opacity="0.42"/><path d="M109,258L153,258L153,344L109,344Z" fill="rgb(22, 25, 34)" fill-opacity="0.62"/><ellipse cx="256" cy="212" rx="14" ry="8" fill="rgb(30, 34, 47)" fill-opacity="0.69"/><ellipse cx="210" cy="137" rx="7" ry="10" fill="rgb(114, 86, 64)" fill-opacity="0.80"/><path d="M149,213L139,203L172,196Z" fill="rgb(153, 159, 166)" fill-opacity="0.95"/><ellipse cx="163" cy="178" rx="10" ry="8" fill="rgb(130, 86, 74)" fill-opacity="0.55"/><path d="M149,74L181,88L163,108Z" fill="rgb(14, 7, 5)" fill-opacity="0.20"/><ellipse cx="173" cy="212" rx="4" ry="19" fill="rgb(4, 4, 14)" fill-opacity="0.33"/><path d="M225,208L216,178L251,207Z" fill="rgb(32, 36, 48)" fill-opacity="0.74"/><ellipse cx="235" cy="68" rx="3" ry="36" fill="rgb(38, 32, 33)" fill-opacity="0.65"/><path d="M131,182L151,230L140,159Z" fill="rgb(144, 150, 156)" fill-opacity="0.85"/><ellipse cx="115" cy="392" rx="3" ry="11" fill="rgb(39, 13, 1)" fill-opacity="0.29"/><ellipse cx="130" cy="169" rx="5" ry="8" fill="rgb(2, 2, 2)" fill-opacity="0.74"/><ellipse cx="188" cy="305" rx="11" ry="21" fill="rgb(30, 36, 51)" fill-opacity="0.47"/><ellipse cx="203" cy="52" rx="18" ry="5" fill="rgb(81, 39, 18)" fill-opacity="0.31"/><ellipse cx="15" cy="214" rx="16" ry="20" fill="rgb(0, 0, 0)" fill-opacity="1.00"/><path d="M138,372L300,372L300,383L138,383Z" fill="rgb(25, 30, 41)" fill-opacity="0.50"/><text text-anchor="middle" dominant-baseline="central" font-size="16" font-family="sans-serif" x="194" y="206" fill="rgb(220, 238, 253)" fill-opacity="0.50">☺</text><path d="M38,458L55,458L55,529L38,529Z" fill="rgb(16, 17, 22)" fill-opacity="0.53"/><ellipse cx="215" cy="106" rx="12" ry="9" fill="rgb(255, 219, 185)" fill-opacity="0.10"/><path d="M240,85L165,4L221,27Z" fill="rgb(0, 0, 0)" fill-opacity="0.23"/><ellipse cx="287" cy="339" rx="3" ry="3" fill="rgb(16, 1, 13)" fill-opacity="0.46"/><ellipse cx="198" cy="137" rx="5" ry="4" fill="rgb(32, 24, 13)" fill-opacity="0.46"/><ellipse cx="64" cy="213" rx="17" ry="3" fill="rgb(28, 31, 42)" fill-opacity="0.87"/><path d="M281,366L272,364L289,354Z" fill="rgb(177, 125, 133)" fill-opacity="0.61"/><path d="M189,257L202,217L215,190Z" fill="rgb(116, 132, 155)" fill-opacity="0.82"/><ellipse cx="164" cy="150" rx="8" ry="11" fill="rgb(127, 90, 72)" fill-opacity="0.49"/><ellipse cx="270" cy="340" rx="4" ry="9" fill="rgb(140, 101, 95)" fill-opacity="0.75"/><path d="M130,387L134,413L118,403Z" fill="rgb(109, 76, 63)" fill-opacity="0.64"/><path d="M7,295L57,295L57,349L7,349Z" fill="rgb(20, 24, 33)" fill-opacity="0.72"/><path d="M148,219L162,234L169,204Z" fill="rgb(109, 109, 113)" fill-opacity="0.62"/><path d="M218,186L191,232L213,169Z" fill="rgb(174, 190, 207)" fill-opacity="0.80"/><ellipse cx="213" cy="448" rx="26" ry="5" fill="rgb(117, 81, 61)" fill-opacity="0.41"/><path d="M171,122L193,124L168,141Z" fill="rgb(85, 51, 40)" fill-opacity="0.81"/><ellipse cx="108" cy="297" rx="17" ry="25" fill="rgb(26, 30, 43)" fill-opacity="0.66"/><path d="M74,404L73,398L90,402Z" fill="rgb(55, 42, 43)" fill-opacity="0.55"/><path d="M-2,407L121,407L121,446L-2,446Z" fill="rgb(12, 13, 18)" fill-opacity="0.66"/><ellipse cx="32" cy="396" rx="31" ry="22" fill="rgb(14, 15, 20)" fill-opacity="0.65"/><path d="M258,357L291,328L248,354Z" fill="rgb(159, 118, 111)" fill-opacity="0.77"/><path d="M128,180L135,193L65,213Z" fill="rgb(26, 27, 34)" fill-opacity="0.83"/><path d="M153,140L156,130L178,130Z" fill="rgb(22, 21, 15)" fill-opacity="0.42"/><path d="M134,399L197,399L197,426L134,426Z" fill="rgb(16, 17, 23)" fill-opacity="0.74"/><text text-anchor="middle" dominant-baseline="central" font-size="17" font-family="sans-serif" x="275" y="329" fill="rgb(31, 27, 34)" fill-opacity="0.62">☺</text><path d="M223,126L234,109L234,122Z" fill="rgb(211, 154, 147)" fill-opacity="0.37"/><path d="M63,206L95,206L95,299L63,299Z" fill="rgb(27, 31, 44)" fill-opacity="0.49"/><ellipse cx="252" cy="251" rx="19" ry="16" fill="rgb(15, 17, 24)" fill-opacity="0.60"/><ellipse cx="1" cy="309" rx="4" ry="20" fill="rgb(0, 0, 0)" fill-opacity="0.83"/><ellipse cx="81" cy="388" rx="17" ry="10" fill="rgb(165, 131, 119)" fill-opacity="0.44"/><ellipse cx="289" cy="209" rx="11" ry="4" fill="rgb(0, 0, 0)" fill-opacity="0.89"/><ellipse cx="189" cy="4" rx="13" ry="2" fill="rgb(39, 40, 46)" fill-opacity="0.53"/><path d="M209,278L224,278L224,358L209,358Z" fill="rgb(15, 16, 21)" fill-opacity="0.52"/><path d="M193,119L186,95L215,101Z" fill="rgb(103, 62, 49)" fill-opacity="0.36"/><ellipse cx="196" cy="207" rx="10" ry="4" fill="rgb(222, 239, 254)" fill-opacity="0.39"/><ellipse cx="241" cy="345" rx="17" ry="7" fill="rgb(8, 7, 11)" fill-opacity="0.81"/><ellipse cx="120" cy="373" rx="4" ry="1" fill="rgb(214, 228, 255)" fill-opacity="0.39"/><ellipse cx="318" cy="261" rx="4" ry="19" fill="rgb(31, 35, 47)" fill-opacity="0.82"/><ellipse cx="240" cy="-2" rx="34" ry="20" fill="rgb(0, 0, 0)" fill-opacity="1.00"/><ellipse cx="202" cy="334" rx="13" ry="22" fill="rgb(14, 15, 21)" fill-opacity="0.97"/><ellipse cx="210" cy="169" rx="1" ry="19" fill="rgb(240, 239, 247)" fill-opacity="0.17"/><path d="M189,225L182,243L177,220Z" fill="rgb(181, 202, 227)" fill-opacity="0.44"/><ellipse cx="250" cy="291" rx="19" ry="11" fill="rgb(29, 34, 47)" fill-opacity="0.41"/><path d="M282,346L258,359L303,324Z" fill="rgb(52, 31, 33)" fill-opacity="0.74"/><ellipse cx="42" cy="367" rx="19" ry="15" fill="rgb(16, 18, 25)" fill-opacity="0.68"/><path d="M189,224L177,219L206,214Z" fill="rgb(114, 117, 126)" fill-opacity="0.80"/><ellipse cx="286" cy="332" rx="2" ry="3" fill="rgb(176, 118, 117)" fill-opacity="0.75"/><ellipse cx="229" cy="165" rx="18" ry="11" fill="rgb(0, 0, 0)" fill-opacity="0.72"/><path d="M188,103L211,79L222,89Z" fill="rgb(10, 12, 16)" fill-opacity="0.28"/><path d="M201,217L207,206L223,189Z" fill="rgb(46, 50, 60)" fill-opacity="0.60"/><path d="M109,384L93,383L111,365Z" fill="rgb(46, 52, 62)" fill-opacity="0.73"/><ellipse cx="219" cy="75" rx="7" ry="8" fill="rgb(129, 101, 81)" fill-opacity="0.52"/><path d="M68,373L52,386L62,373Z" fill="rgb(116, 90, 92)" fill-opacity="0.59"/><path d="M154,261L168,210L149,244Z" fill="rgb(167, 189, 222)" fill-opacity="0.19"/><ellipse cx="289" cy="227" rx="17" ry="12" fill="rgb(28, 32, 44)" fill-opacity="0.68"/><ellipse cx="211" cy="173" rx="3" ry="4" fill="rgb(187, 209, 229)" fill-opacity="0.49"/><ellipse cx="165" cy="63" rx="13" ry="16" fill="rgb(143, 106, 101)" fill-opacity="0.32"/><path d="M140,384L121,396L107,381Z" fill="rgb(243, 175, 153)" fill-opacity="0.16"/><ellipse cx="300" cy="355" rx="8" ry="14" fill="rgb(10, 10, 15)" fill-opacity="0.46"/><ellipse cx="316" cy="349" rx="14" ry="18" fill="rgb(24, 30, 42)" fill-opacity="0.57"/><ellipse cx="118" cy="357" rx="37" ry="9" fill="rgb(14, 14, 20)" fill-opacity="0.59"/><ellipse cx="189" cy="45" rx="13" ry="4" fill="rgb(85, 50, 35)" fill-opacity="0.40"/><path d="M195,436L181,456L216,455Z" fill="rgb(101, 72, 55)" fill-opacity="0.44"/><ellipse cx="71" cy="332" rx="10" ry="27" fill="rgb(1, 1, 3)" fill-opacity="0.32"/><ellipse cx="2" cy="345" rx="3" ry="18" fill="rgb(46, 49, 56)" fill-opacity="0.40"/><ellipse cx="148" cy="141" rx="6" ry="16" fill="rgb(115, 82, 57)" fill-opacity="0.62"/><ellipse cx="139" cy="103" rx="6" ry="10" fill="rgb(143, 111, 88)" fill-opacity="0.52"/><ellipse cx="182" cy="116" rx="11" ry="5" fill="rgb(172, 127, 127)" fill-opacity="0.36"/><ellipse cx="61" cy="195" rx="28" ry="12" fill="rgb(0, 0, 0)" fill-opacity="0.94"/><path d="M253,19L304,19L304,204L253,204Z" fill="rgb(0, 0, 0)" fill-opacity="0.93"/><ellipse cx="201" cy="243" rx="5" ry="11" fill="rgb(28, 33, 45)" fill-opacity="0.95"/><path d="M144,263L154,263L154,315L144,315Z" fill="rgb(23, 25, 33)" fill-opacity="0.69"/><ellipse cx="175" cy="186" rx="10" ry="10" fill="rgb(125, 82, 73)" fill-opacity="0.69"/><ellipse cx="236" cy="352" rx="11" ry="15" fill="rgb(7, 7, 11)" fill-opacity="1.00"/><ellipse cx="187" cy="72" rx="22" ry="5" fill="rgb(159, 120, 114)" fill-opacity="0.51"/><ellipse cx="105" cy="243" rx="6" ry="12" fill="rgb(12, 12, 17)" fill-opacity="0.53"/><path d="M172,198L137,164L145,210Z" fill="rgb(151, 155, 162)" fill-opacity="0.72"/><ellipse cx="301" cy="365" rx="13" ry="5" fill="rgb(0, 0, 2)" fill-opacity="0.48"/><path d="M175,393L324,393L324,415L175,415Z" fill="rgb(14, 15, 20)" fill-opacity="0.49"/><ellipse cx="168" cy="233" rx="5" ry="15" fill="rgb(29, 34, 44)" fill-opacity="0.91"/><ellipse cx="173" cy="257" rx="10" ry="26" fill="rgb(34, 45, 61)" fill-opacity="0.29"/><ellipse cx="23" cy="472" rx="18" ry="16" fill="rgb(0, 0, 0)" fill-opacity="0.57"/><ellipse cx="322" cy="328" rx="5" ry="15" fill="rgb(32, 36, 47)" fill-opacity="0.60"/><ellipse cx="170" cy="263" rx="12" ry="22" fill="rgb(28, 33, 42)" fill-opacity="0.80"/><path d="M36,212L13,278L21,241Z" fill="rgb(35, 40, 48)" fill-opacity="0.66"/><text text-anchor="middle" dominant-baseline="central" font-size="17" font-family="sans-serif" x="183" y="198" fill="rgb(163, 179, 195)" fill-opacity="0.53">☺</text><ellipse cx="183" cy="30" rx="15" ry="13" fill="rgb(8, 7, 7)" fill-opacity="0.54"/><path d="M187,113L193,134L201,128Z" fill="rgb(174, 131, 126)" fill-opacity="0.37"/><path d="M18,375L17,389L50,372Z" fill="rgb(1, 1, 3)" fill-opacity="0.48"/><ellipse cx="266" cy="260" rx="5" ry="29" fill="rgb(22, 25, 33)" fill-opacity="0.65"/><path d="M177,200L162,202L199,220Z" fill="rgb(14, 10, 6)" fill-opacity="0.29"/><ellipse cx="218" cy="19" rx="10" ry="8" fill="rgb(86, 101, 134)" fill-opacity="0.10"/><ellipse cx="55" cy="276" rx="6" ry="23" fill="rgb(5, 5, 10)" fill-opacity="0.41"/><ellipse cx="104" cy="385" rx="8" ry="1" fill="rgb(193, 229, 255)" fill-opacity="0.49"/><ellipse cx="157" cy="77" rx="14" ry="2" fill="rgb(85, 64, 61)" fill-opacity="0.43"/><ellipse cx="290" cy="353" rx="5" ry="2" fill="rgb(28, 17, 21)" fill-opacity="0.62"/><ellipse cx="326" cy="442" rx="11" ry="16" fill="rgb(0, 0, 0)" fill-opacity="0.88"/><text text-anchor="middle" dominant-baseline="central" font-size="17" font-family="sans-serif" x="108" y="401" fill="rgb(80, 81, 77)" fill-opacity="0.63">☺</text><ellipse cx="128" cy="7" rx="15" ry="22" fill="rgb(0, 0, 0)" fill-opacity="0.71"/><ellipse cx="86" cy="391" rx="9" ry="5" fill="rgb(186, 155, 140)" fill-opacity="0.38"/><path d="M250,372L280,361L241,367Z" fill="rgb(116, 79, 72)" fill-opacity="0.85"/><ellipse cx="239" cy="321" rx="20" ry="20" fill="rgb(15, 15, 20)" fill-opacity="0.55"/><path d="M181,96L189,86L184,119Z" fill="rgb(252, 197, 193)" fill-opacity="0.19"/><ellipse cx="310" cy="480" rx="27" ry="40" fill="rgb(0, 0, 0)" fill-opacity="1.00"/><ellipse cx="25" cy="204" rx="23" ry="14" fill="rgb(0, 0, 0)" fill-opacity="0.70"/><text text-anchor="middle" dominant-baseline="central" font-size="16" font-family="sans-serif" x="220" y="194" fill="rgb(32, 37, 49)" fill-opacity="0.56">☺</text><ellipse cx="161" cy="123" rx="9" ry="8" fill="rgb(130, 84, 74)" fill-opacity="0.58"/><ellipse cx="190" cy="152" rx="4" ry="9" fill="rgb(124, 85, 66)" fill-opacity="0.59"/><ellipse cx="86" cy="362" rx="17" ry="16" fill="rgb(8, 7, 11)" fill-opacity="0.50"/><path d="M174,198L196,214L209,205Z" fill="rgb(192, 208, 224)" fill-opacity="0.52"/><path d="M103,369L123,368L101,385Z" fill="rgb(42, 48, 60)" fill-opacity="0.61"/><ellipse cx="47" cy="505" rx="15" ry="19" fill="rgb(13, 14, 18)" fill-opacity="0.65"/><ellipse cx="319" cy="305" rx="4" ry="12" fill="rgb(35, 40, 51)" fill-opacity="0.53"/><ellipse cx="13" cy="494" rx="20" ry="39" fill="rgb(0, 0, 0)" fill-opacity="0.89"/><path d="M233,115L234,95L238,96Z" fill="rgb(179, 104, 91)" fill-opacity="0.36"/><ellipse cx="74" cy="412" rx="11" ry="12" fill="rgb(17, 19, 25)" fill-opacity="0.58"/><ellipse cx="126" cy="53" rx="3" ry="11" fill="rgb(27, 25, 26)" fill-opacity="0.53"/><ellipse cx="179" cy="136" rx="10" ry="2" fill="rgb(158, 104, 91)" fill-opacity="0.40"/><ellipse cx="43" cy="281" rx="15" ry="6" fill="rgb(15, 17, 23)" fill-opacity="0.98"/><ellipse cx="228" cy="97" rx="2" ry="9" fill="rgb(11, 14, 16)" fill-opacity="0.57"/><ellipse cx="235" cy="8" rx="7" ry="21" fill="rgb(0, 0, 0)" fill-opacity="0.60"/><path d="M146,218L157,255L156,275Z" fill="rgb(159, 176, 198)" fill-opacity="0.55"/><path d="M127,372L107,379L124,370Z" fill="rgb(227, 234, 247)" fill-opacity="0.22"/><ellipse cx="118" cy="146" rx="20" ry="8" fill="rgb(0, 0, 0)" fill-opacity="0.97"/><path d="M207,211L218,211L218,286L207,286Z" fill="rgb(27, 31, 43)" fill-opacity="0.75"/><ellipse cx="133" cy="365" rx="1" ry="20" fill="rgb(23, 18, 22)" fill-opacity="0.33"/><ellipse cx="150" cy="114" rx="6" ry="21" fill="rgb(141, 104, 79)" fill-opacity="0.35"/><ellipse cx="206" cy="12" rx="8" ry="5" fill="rgb(31, 33, 37)" fill-opacity="0.49"/><path d="M321,277L270,290L273,338Z" fill="rgb(14, 17, 23)" fill-opacity="0.67"/><path d="M149,154L181,175L152,162Z" fill="rgb(60, 41, 30)" fill-opacity="0.50"/><ellipse cx="196" cy="196" rx="17" ry="8" fill="rgb(163, 179, 195)" fill-opacity="0.44"/><text text-anchor="middle" dominant-baseline="central" font-size="18" font-family="sans-serif" x="126" y="99" fill="rgb(73, 37, 27)" fill-opacity="0.50">☺</text><ellipse cx="202" cy="451" rx="14" ry="6" fill="rgb(98, 70, 55)" fill-opacity="0.52"/><ellipse cx="249" cy="455" rx="14" ry="9" fill="rgb(1, 1, 3)" fill-opacity="0.68"/><ellipse cx="246" cy="124" rx="12" ry="31" fill="rgb(0, 0, 0)" fill-opacity="0.78"/><ellipse cx="294" cy="319" rx="12" ry="13" fill="rgb(20, 22, 31)" fill-opacity="0.69"/><ellipse cx="177" cy="150" rx="8" ry="3" fill="rgb(24, 13, 10)" fill-opacity="0.36"/><path d="M218,133L174,198L207,173Z" fill="rgb(121, 90, 79)" fill-opacity="0.99"/><ellipse cx="168" cy="315" rx="4" ry="20" fill="rgb(9, 8, 10)" fill-opacity="0.46"/><ellipse cx="209" cy="336" rx="8" ry="25" fill="rgb(34, 33, 40)" fill-opacity="0.17"/><path d="M141,98L150,88L139,48Z" fill="rgb(102, 67, 43)" fill-opacity="0.41"/><ellipse cx="175" cy="96" rx="5" ry="17" fill="rgb(106, 72, 50)" fill-opacity="0.25"/><path d="M224,193L269,217L293,216Z" fill="rgb(31, 36, 48)" fill-opacity="0.73"/><ellipse cx="244" cy="393" rx="4" ry="8" fill="rgb(2, 1, 3)" fill-opacity="0.58"/><ellipse cx="272" cy="398" rx="15" ry="14" fill="rgb(19, 20, 29)" fill-opacity="0.43"/><ellipse cx="166" cy="37" rx="15" ry="3" fill="rgb(29, 20, 19)" fill-opacity="0.53"/><path d="M112,405L91,382L112,391Z" fill="rgb(120, 119, 118)" fill-opacity="0.66"/><ellipse cx="118" cy="312" rx="17" ry="18" fill="rgb(25, 29, 41)" fill-opacity="0.61"/><path d="M139,143L165,158L198,159Z" fill="rgb(120, 87, 69)" fill-opacity="0.58"/><path d="M143,150L140,166L174,199Z" fill="rgb(119, 82, 71)" fill-opacity="0.96"/><ellipse cx="215" cy="127" rx="5" ry="10" fill="rgb(118, 93, 72)" fill-opacity="0.50"/><path d="M110,381L111,388L114,381Z" fill="rgb(161, 195, 217)" fill-opacity="0.51"/><ellipse cx="144" cy="66" rx="6" ry="13" fill="rgb(112, 79, 54)" fill-opacity="0.42"/><path d="M132,411L116,407L134,434Z" fill="rgb(3, 2, 3)" fill-opacity="0.64"/><path d="M201,160L168,168L198,170Z" fill="rgb(13, 10, 5)" fill-opacity="0.21"/><path d="M209,171L201,189L175,200Z" fill="rgb(141, 150, 159)" fill-opacity="0.61"/><text text-anchor="middle" dominant-baseline="central" font-size="16" font-family="sans-serif" x="171" y="203" fill="rgb(26, 28, 30)" fill-opacity="0.68">☺</text><ellipse cx="102" cy="79" rx="19" ry="19" fill="rgb(0, 0, 0)" fill-opacity="0.79"/><path d="M98,409L97,390L105,400Z" fill="rgb(99, 78, 67)" fill-opacity="0.54"/><path d="M232,111L233,102L193,162Z" fill="rgb(103, 72, 58)" fill-opacity="0.69"/><text text-anchor="middle" dominant-baseline="central" font-size="16" font-family="sans-serif" x="130" y="385" fill="rgb(156, 118, 109)" fill-opacity="0.54">☺</text><ellipse cx="200" cy="93" rx="7" ry="3" fill="rgb(10, 5, 8)" fill-opacity="0.45"/><ellipse cx="4" cy="432" rx="7" ry="19" fill="rgb(19, 21, 22)" fill-opacity="0.49"/><text text-anchor="middle" dominant-baseline="central" font-size="17" font-family="sans-serif" x="133" y="373" fill="rgb(9, 7, 9)" fill-opacity="0.58">☺</text><path d="M4,305L45,305L45,372L4,372Z" fill="rgb(21, 25, 32)" fill-opacity="0.58"/><path d="M136,227L147,227L147,428L136,428Z" fill="rgb(21, 23, 31)" fill-opacity="0.49"/><ellipse cx="213" cy="94" rx="6" ry="6" fill="rgb(83, 55, 36)" fill-opacity="0.44"/><ellipse cx="100" cy="231" rx="5" ry="9" fill="rgb(14, 14, 19)" fill-opacity="0.61"/><ellipse cx="92" cy="376" rx="5" ry="2" fill="rgb(7, 3, 4)" fill-opacity="0.50"/><ellipse cx="183" cy="121" rx="5" ry="4" fill="rgb(127, 81, 63)" fill-opacity="0.41"/><path d="M135,384L209,384L209,401L135,401Z" fill="rgb(22, 25, 33)" fill-opacity="0.52"/><path d="M131,215L144,215L144,303L131,303Z" fill="rgb(22, 24, 31)" fill-opacity="0.92"/><path d="M71,0L120,0L120,85L71,85Z" fill="rgb(0, 0, 0)" fill-opacity="0.99"/><ellipse cx="255" cy="322" rx="15" ry="20" fill="rgb(10, 11, 16)" fill-opacity="0.54"/><path d="M158,5L201,-14L190,-3Z" fill="rgb(47, 50, 59)" fill-opacity="0.56"/><ellipse cx="146" cy="3" rx="13" ry="6" fill="rgb(0, 0, 0)" fill-opacity="0.98"/><text text-anchor="middle" dominant-baseline="central" font-size="16" font-family="sans-serif" x="122" y="105" fill="rgb(116, 75, 63)" fill-opacity="0.78">☺</text><ellipse cx="178" cy="329" rx="7" ry="15" fill="rgb(28, 33, 46)" fill-opacity="0.46"/><ellipse cx="165" cy="440" rx="23" ry="7" fill="rgb(0, 0, 0)" fill-opacity="0.50"/><ellipse cx="155" cy="225" rx="5" ry="10" fill="rgb(113, 115, 121)" fill-opacity="0.60"/><ellipse cx="123" cy="207" rx="19" ry="10" fill="rgb(16, 17, 21)" fill-opacity="0.52"/><ellipse cx="85" cy="383" rx="15" ry="6" fill="rgb(147, 116, 106)" fill-opacity="0.43"/><ellipse cx="265" cy="378" rx="7" ry="12" fill="rgb(26, 26, 35)" fill-opacity="0.38"/><path d="M289,512L273,541L274,431Z" fill="rgb(16, 17, 20)" fill-opacity="0.53"/><path d="M190,249L200,199L182,262Z" fill="rgb(230, 248, 255)" fill-opacity="0.20"/><ellipse cx="330" cy="259" rx="8" ry="25" fill="rgb(0, 0, 0)" fill-opacity="1.00"/><ellipse cx="225" cy="272" rx="4" ry="7" fill="rgb(10, 13, 17)" fill-opacity="0.53"/><path d="M275,351L277,358L255,363Z" fill="rgb(179, 143, 133)" fill-opacity="0.44"/><ellipse cx="244" cy="302" rx="17" ry="25" fill="rgb(33, 39, 48)" fill-opacity="0.14"/><ellipse cx="52" cy="223" rx="22" ry="10" fill="rgb(26, 31, 43)" fill-opacity="0.58"/><path d="M70,475L250,475L250,527L70,527Z" fill="rgb(5, 5, 7)" fill-opacity="1.00"/><ellipse cx="104" cy="379" rx="7" ry="5" fill="rgb(44, 48, 57)" fill-opacity="0.88"/><text text-anchor="middle" dominant-baseline="central" font-size="17" font-family="sans-serif" x="272" y="362" fill="rgb(132, 91, 85)" fill-opacity="0.73">☺</text><ellipse cx="197" cy="146" rx="14" ry="5" fill="rgb(112, 74, 58)" fill-opacity="0.69"/><path d="M240,378L232,379L293,463Z" fill="rgb(6, 6, 8)" fill-opacity="0.71"/><ellipse cx="214" cy="255" rx="13" ry="18" fill="rgb(28, 33, 45)" fill-opacity="0.54"/><path d="M167,88L160,95L153,89Z" fill="rgb(4, 5, 8)" fill-opacity="0.53"/><ellipse cx="309" cy="348" rx="19" ry="4" fill="rgb(28, 27, 36)" fill-opacity="0.42"/><path d="M162,42L156,38L134,75Z" fill="rgb(106, 74, 60)" fill-opacity="0.42"/><ellipse cx="149" cy="276" rx="6" ry="21" fill="rgb(24, 27, 35)" fill-opacity="0.63"/><path d="M210,167L201,174L215,139Z" fill="rgb(143, 114, 102)" fill-opacity="0.49"/><path d="M178,426L309,426L309,437L178,437Z" fill="rgb(7, 7, 9)" fill-opacity="0.56"/><ellipse cx="154" cy="13" rx="11" ry="4" fill="rgb(24, 24, 25)" fill-opacity="0.48"/><ellipse cx="253" cy="246" rx="4" ry="17" fill="rgb(13, 13, 19)" fill-opacity="0.74"/><ellipse cx="15" cy="285" rx="4" ry="15" fill="rgb(26, 33, 38)" fill-opacity="0.54"/><ellipse cx="62" cy="403" rx="7" ry="12" fill="rgb(17, 18, 25)" fill-opacity="0.59"/><path d="M150,339L160,341L85,210Z" fill="rgb(11, 11, 15)" fill-opacity="0.61"/><ellipse cx="208" cy="197" rx="4" ry="6" fill="rgb(173, 190, 206)" fill-opacity="0.62"/><path d="M51,444L183,444L183,469L51,469Z" fill="rgb(8, 8, 10)" fill-opacity="0.67"/><ellipse cx="89" cy="340" rx="17" ry="20" fill="rgb(13, 13, 19)" fill-opacity="0.43"/><path d="M271,167L306,167L306,209L271,209Z" fill="rgb(0, 0, 0)" fill-opacity="0.97"/><ellipse cx="129" cy="375" rx="10" ry="3" fill="rgb(13, 12, 15)" fill-opacity="0.56"/><path d="M261,369L270,366L308,337Z" fill="rgb(80, 44, 42)" fill-opacity="0.65"/><ellipse cx="229" cy="346" rx="10" ry="24" fill="rgb(7, 7, 11)" fill-opacity="0.54"/><ellipse cx="185" cy="244" rx="1" ry="5" fill="rgb(114, 123, 142)" fill-opacity="0.51"/><path d="M134,116L114,63L147,139Z" fill="rgb(49, 37, 32)" fill-opacity="0.53"/><ellipse cx="182" cy="140" rx="12" ry="2" fill="rgb(74, 17, 26)" fill-opacity="0.49"/><path d="M165,40L142,53L179,44Z" fill="rgb(118, 83, 71)" fill-opacity="0.50"/><ellipse cx="214" cy="39" rx="14" ry="8" fill="rgb(6, 4, 4)" fill-opacity="0.51"/><text text-anchor="middle" dominant-baseline="central" font-size="17" font-family="sans-serif" x="134" y="159" fill="rgb(8, 8, 8)" fill-opacity="0.63">☺</text><path d="M101,379L101,375L97,379Z" fill="rgb(154, 158, 147)" fill-opacity="0.49"/><ellipse cx="143" cy="388" rx="8" ry="12" fill="rgb(25, 31, 42)" fill-opacity="0.45"/><path d="M162,97L149,94L139,97Z" fill="rgb(111, 74, 56)" fill-opacity="0.52"/><text text-anchor="middle" dominant-baseline="central" font-size="19" font-family="sans-serif" x="217" y="58" fill="rgb(113, 83, 68)" fill-opacity="0.53">☺</text><ellipse cx="212" cy="229" rx="12" ry="11" fill="rgb(26, 30, 42)" fill-opacity="0.54"/><ellipse cx="180" cy="216" rx="3" ry="5" fill="rgb(97, 98, 104)" fill-opacity="0.76"/><path d="M137,117L140,117L140,145L137,145Z" fill="rgb(149, 128, 122)" fill-opacity="0.26"/><text text-anchor="middle" dominant-baseline="central" font-size="15" font-family="sans-serif" x="176" y="204" fill="rgb(23, 26, 30)" fill-opacity="0.48">☺</text><path d="M243,372L258,370L246,361Z" fill="rgb(116, 84, 79)" fill-opacity="1.00"/><ellipse cx="138" cy="181" rx="4" ry="17" fill="rgb(146, 155, 159)" fill-opacity="0.46"/><ellipse cx="237" cy="437" rx="9" ry="6" fill="rgb(8, 8, 10)" fill-opacity="0.79"/><path d="M326,238L356,224L300,210Z" fill="rgb(0, 0, 0)" fill-opacity="1.00"/><path d="M100,388L98,386L112,384Z" fill="rgb(214, 237, 255)" fill-opacity="0.49"/><path d="M133,120L138,150L99,111Z" fill="rgb(0, 0, 0)" fill-opacity="1.00"/><ellipse cx="191" cy="340" rx="4" ry="9" fill="rgb(6, 6, 8)" fill-opacity="0.64"/><ellipse cx="188" cy="61" rx="10" ry="9" fill="rgb(140, 101, 92)" fill-opacity="0.61"/><path d="M1,331L-5,352L-44,336Z" fill="rgb(135, 157, 177)" fill-opacity="0.58"/><ellipse cx="152" cy="197" rx="14" ry="10" fill="rgb(156, 164, 171)" fill-opacity="0.37"/><text text-anchor="middle" dominant-baseline="central" font-size="16" font-family="sans-serif" x="186" y="247" fill="rgb(146, 163, 187)" fill-opacity="0.50">☺</text><path d="M285,329L246,359L280,341Z" fill="rgb(168, 122, 119)" fill-opacity="0.46"/><path d="M136,135L135,116L147,200Z" fill="rgb(134, 121, 119)" fill-opacity="0.49"/><path d="M292,272L269,299L269,278Z" fill="rgb(7, 7, 8)" fill-opacity="0.41"/><ellipse cx="230" cy="142" rx="14" ry="8" fill="rgb(0, 0, 0)" fill-opacity="1.00"/><ellipse cx="245" cy="265" rx="5" ry="16" fill="rgb(25, 30, 44)" fill-opacity="0.50"/><path d="M104,252L112,247L138,301Z" fill="rgb(12, 11, 14)" fill-opacity="0.41"/><ellipse cx="221" cy="78" rx="2" ry="22" fill="rgb(121, 94, 77)" fill-opacity="0.55"/><ellipse cx="236" cy="218" rx="5" ry="4" fill="rgb(10, 11, 16)" fill-opacity="0.57"/><ellipse cx="51" cy="366" rx="8" ry="17" fill="rgb(18, 19, 26)" fill-opacity="0.69"/><path d="M251,365L250,361L286,338Z" fill="rgb(110, 64, 57)" fill-opacity="0.62"/><ellipse cx="227" cy="381" rx="8" ry="11" fill="rgb(24, 27, 36)" fill-opacity="0.57"/><ellipse cx="109" cy="380" rx="13" ry="1" fill="rgb(11, 4, 6)" fill-opacity="0.44"/><path d="M178,224L167,208L181,250Z" fill="rgb(27, 32, 43)" fill-opacity="0.66"/><path d="M293,337L260,362L297,341Z" fill="rgb(164, 117, 117)" fill-opacity="0.66"/><path d="M197,126L225,88L225,114Z" fill="rgb(168, 134, 119)" fill-opacity="0.27"/><path d="M96,390L75,394L91,383Z" fill="rgb(174, 143, 131)" fill-opacity="0.52"/><path d="M161,296L158,265L163,238Z" fill="rgb(19, 20, 24)" fill-opacity="0.71"/><path d="M173,128L153,107L151,83Z" fill="rgb(103, 59, 56)" fill-opacity="0.28"/><ellipse cx="169" cy="214" rx="1" ry="14" fill="rgb(20, 21, 24)" fill-opacity="0.79"/><path d="M182,117L190,119L183,89Z" fill="rgb(196, 150, 152)" fill-opacity="0.30"/><ellipse cx="119" cy="104" rx="1" ry="8" fill="rgb(148, 101, 89)" fill-opacity="0.60"/><path d="M186,136L184,122L193,122Z" fill="rgb(64, 28, 11)" fill-opacity="0.27"/><path d="M59,372L78,379L68,395Z" fill="rgb(139, 110, 106)" fill-opacity="0.50"/><ellipse cx="313" cy="243" rx="6" ry="18" fill="rgb(31, 35, 46)" fill-opacity="0.60"/><ellipse cx="104" cy="176" rx="18" ry="16" fill="rgb(0, 0, 0)" fill-opacity="0.79"/><path d="M175,2L184,3L131,-15Z" fill="rgb(79, 83, 97)" fill-opacity="0.28"/><ellipse cx="279" cy="315" rx="7" ry="17" fill="rgb(14, 14, 20)" fill-opacity="0.50"/><ellipse cx="263" cy="199" rx="18" ry="4" fill="rgb(0, 0, 0)" fill-opacity="0.70"/><ellipse cx="194" cy="288" rx="11" ry="23" fill="rgb(27, 31, 43)" fill-opacity="0.84"/><path d="M103,408L93,403L97,381Z" fill="rgb(120, 86, 75)" fill-opacity="0.37"/><path d="M118,382L132,371L107,380Z" fill="rgb(26, 25, 31)" fill-opacity="0.61"/><path d="M237,40L232,25L207,15Z" fill="rgb(28, 29, 37)" fill-opacity="0.55"/><ellipse cx="132" cy="39" rx="6" ry="8" fill="rgb(27, 26, 28)" fill-opacity="0.52"/><ellipse cx="218" cy="224" rx="16" ry="11" fill="rgb(24, 29, 40)" fill-opacity="0.52"/><ellipse cx="137" cy="167" rx="2" ry="2" fill="rgb(169, 186, 199)" fill-opacity="0.35"/><ellipse cx="206" cy="51" rx="11" ry="3" fill="rgb(99, 64, 53)" fill-opacity="0.38"/><ellipse cx="81" cy="418" rx="22" ry="13" fill="rgb(15, 16, 22)" fill-opacity="0.63"/><path d="M208,312L250,312L250,317L208,317Z" fill="rgb(22, 24, 33)" fill-opacity="0.63"/><path d="M111,392L98,392L116,385Z" fill="rgb(58, 67, 76)" fill-opacity="0.29"/><ellipse cx="314" cy="277" rx="11" ry="2" fill="rgb(31, 36, 48)" fill-opacity="0.56"/><ellipse cx="150" cy="202" rx="8" ry="10" fill="rgb(155, 162, 168)" fill-opacity="0.63"/><ellipse cx="271" cy="377" rx="29" ry="8" fill="rgb(23, 27, 39)" fill-opacity="0.52"/><ellipse cx="151" cy="240" rx="2" ry="8" fill="rgb(210, 230, 254)" fill-opacity="0.22"/><ellipse cx="180" cy="144" rx="13" ry="2" fill="rgb(128, 52, 71)" fill-opacity="0.52"/><path d="M76,209L100,198L22,220Z" fill="rgb(54, 58, 71)" fill-opacity="0.22"/><ellipse cx="72" cy="388" rx="6" ry="10" fill="rgb(143, 121, 114)" fill-opacity="0.24"/><ellipse cx="45" cy="388" rx="12" ry="9" fill="rgb(19, 23, 31)" fill-opacity="0.55"/><ellipse cx="207" cy="86" rx="11" ry="3" fill="rgb(38, 28, 26)" fill-opacity="0.50"/><path d="M224,34L235,34L235,66L224,66Z" fill="rgb(15, 16, 17)" fill-opacity="0.60"/><ellipse cx="51" cy="310" rx="8" ry="6" fill="rgb(17, 18, 25)" fill-opacity="0.99"/><text text-anchor="middle" dominant-baseline="central" font-size="16" font-family="sans-serif" x="213" y="206" fill="rgb(27, 32, 42)" fill-opacity="0.50">☺</text><ellipse cx="166" cy="59" rx="15" ry="13" fill="rgb(145, 106, 94)" fill-opacity="0.45"/><ellipse cx="200" cy="81" rx="13" ry="2" fill="rgb(105, 77, 78)" fill-opacity="0.37"/><ellipse cx="122" cy="68" rx="2" ry="16" fill="rgb(27, 27, 30)" fill-opacity="0.51"/><ellipse cx="209" cy="61" rx="4" ry="6" fill="rgb(156, 122, 108)" fill-opacity="0.37"/><path d="M120,94L122,106L130,99Z" fill="rgb(101, 56, 45)" fill-opacity="0.92"/><path d="M149,149L138,142L140,168Z" fill="rgb(133, 102, 88)" fill-opacity="0.56"/><ellipse cx="232" cy="261" rx="4" ry="9" fill="rgb(12, 15, 20)" fill-opacity="0.52"/><ellipse cx="240" cy="499" rx="12" ry="22" fill="rgb(9, 9, 12)" fill-opacity="0.47"/><path d="M270,337L297,318L272,338Z" fill="rgb(31, 26, 31)" fill-opacity="0.60"/><ellipse cx="272" cy="246" rx="5" ry="12" fill="rgb(25, 29, 41)" fill-opacity="0.54"/><text text-anchor="middle" dominant-baseline="central" font-size="16" font-family="sans-serif" x="285" y="356" fill="rgb(132, 86, 95)" fill-opacity="0.42">☺</text><path d="M151,199L145,197L207,199Z" fill="rgb(161, 167, 179)" fill-opacity="0.46"/><text text-anchor="middle" dominant-baseline="central" font-size="19" font-family="sans-serif" x="162" y="211" fill="rgb(84, 82, 83)" fill-opacity="0.51">☺</text><path d="M126,388L115,386L130,383Z" fill="rgb(207, 156, 140)" fill-opacity="0.56"/><path d="M214,196L193,197L214,170Z" fill="rgb(174, 190, 206)" fill-opacity="0.68"/><ellipse cx="117" cy="232" rx="14" ry="13" fill="rgb(26, 30, 41)" fill-opacity="0.47"/><path d="M192,81L191,99L175,80Z" fill="rgb(122, 77, 48)" fill-opacity="0.31"/><path d="M126,361L98,358L141,376Z" fill="rgb(10, 10, 15)" fill-opacity="0.54"/><ellipse cx="145" cy="231" rx="1" ry="7" fill="rgb(23, 24, 30)" fill-opacity="0.95"/><ellipse cx="161" cy="246" rx="1" ry="10" fill="rgb(64, 55, 52)" fill-opacity="0.33"/><path d="M8,317L5,324L-54,274Z" fill="rgb(0, 0, 0)" fill-opacity="0.80"/><ellipse cx="314" cy="277" rx="9" ry="51" fill="rgb(34, 40, 51)" fill-opacity="0.14"/><path d="M157,128L152,136L165,139Z" fill="rgb(11, 5, 1)" fill-opacity="0.23"/><path d="M145,11L154,8L123,45Z" fill="rgb(35, 34, 38)" fill-opacity="0.51"/><ellipse cx="322" cy="359" rx="20" ry="7" fill="rgb(23, 28, 38)" fill-opacity="0.70"/><ellipse cx="168" cy="364" rx="11" ry="5" fill="rgb(3, 5, 8)" fill-opacity="0.45"/><ellipse cx="178" cy="255" rx="3" ry="21" fill="rgb(31, 37, 48)" fill-opacity="0.97"/><ellipse cx="175" cy="163" rx="17" ry="3" fill="rgb(63, 47, 36)" fill-opacity="0.48"/><path d="M359,443L283,484L280,444Z" fill="rgb(0, 0, 0)" fill-opacity="1.00"/><ellipse cx="280" cy="275" rx="4" ry="26" fill="rgb(18, 22, 30)" fill-opacity="0.50"/><ellipse cx="182" cy="248" rx="1" ry="4" fill="rgb(146, 167, 196)" fill-opacity="0.55"/><path d="M113,388L135,389L117,394Z" fill="rgb(150, 106, 87)" fill-opacity="0.51"/><path d="M197,370L246,364L205,375Z" fill="rgb(8, 7, 11)" fill-opacity="0.64"/><ellipse cx="1" cy="466" rx="7" ry="16" fill="rgb(0, 0, 0)" fill-opacity="1.00"/><path d="M122,374L112,374L110,378Z" fill="rgb(255, 255, 251)" fill-opacity="0.23"/><ellipse cx="216" cy="209" rx="5" ry="14" fill="rgb(27, 31, 42)" fill-opacity="0.69"/><path d="M97,404L104,409L75,402Z" fill="rgb(59, 37, 32)" fill-opacity="0.55"/><path d="M170,194L143,170L154,176Z" fill="rgb(79, 50, 53)" fill-opacity="0.38"/><path d="M201,66L224,82L185,74Z" fill="rgb(160, 124, 117)" fill-opacity="0.36"/><ellipse cx="137" cy="499" rx="24" ry="8" fill="rgb(0, 0, 1)" fill-opacity="0.46"/><ellipse cx="326" cy="431" rx="5" ry="16" fill="rgb(0, 0, 0)" fill-opacity="0.75"/><text text-anchor="middle" dominant-baseline="central" font-size="17" font-family="sans-serif" x="134" y="179" fill="rgb(129, 134, 140)" fill-opacity="0.40">☺</text><path d="M214,106L208,93L194,117Z" fill="rgb(122, 86, 77)" fill-opacity="0.36"/><ellipse cx="151" cy="419" rx="18" ry="11" fill="rgb(19, 20, 26)" fill-opacity="0.44"/><path d="M177,177L161,167L187,173Z" fill="rgb(95, 57, 39)" fill-opacity="0.64"/><path d="M187,278L156,247L158,270Z" fill="rgb(31, 37, 52)" fill-opacity="0.16"/><ellipse cx="135" cy="180" rx="4" ry="6" fill="rgb(157, 164, 171)" fill-opacity="0.47"/><path d="M6,429L46,429L46,455L6,455Z" fill="rgb(10, 11, 14)" fill-opacity="0.99"/><path d="M138,38L148,12L224,35Z" fill="rgb(7, 6, 7)" fill-opacity="0.61"/><ellipse cx="226" cy="154" rx="13" ry="18" fill="rgb(0, 0, 0)" fill-opacity="0.59"/><ellipse cx="106" cy="124" rx="17" ry="18" fill="rgb(0, 0, 0)" fill-opacity="0.81"/><ellipse cx="97" cy="261" rx="11" ry="15" fill="rgb(25, 29, 40)" fill-opacity="0.77"/><ellipse cx="220" cy="201" rx="5" ry="14" fill="rgb(27, 31, 43)" fill-opacity="0.66"/><path d="M135,117L122,116L117,102Z" fill="rgb(137, 94, 75)" fill-opacity="0.81"/><ellipse cx="84" cy="183" rx="17" ry="18" fill="rgb(0, 0, 0)" fill-opacity="0.62"/><ellipse cx="112" cy="442" rx="18" ry="13" fill="rgb(29, 28, 39)" fill-opacity="0.10"/><ellipse cx="161" cy="473" rx="15" ry="25" fill="rgb(9, 9, 12)" fill-opacity="0.42"/><path d="M117,372L127,371L115,375Z" fill="rgb(192, 210, 249)" fill-opacity="0.21"/><text text-anchor="middle" dominant-baseline="central" font-size="17" font-family="sans-serif" x="224" y="438" fill="rgb(8, 8, 10)" fill-opacity="0.69">☺</text><path d="M159,35L132,63L145,42Z" fill="rgb(46, 29, 23)" fill-opacity="0.50"/><path d="M25,227L-43,215L13,273Z" fill="rgb(0, 0, 0)" fill-opacity="1.00"/><ellipse cx="195" cy="96" rx="4" ry="8" fill="rgb(68, 38, 28)" fill-opacity="0.46"/><ellipse cx="206" cy="132" rx="4" ry="7" fill="rgb(125, 89, 63)" fill-opacity="0.56"/><ellipse cx="37" cy="335" rx="14" ry="9" fill="rgb(23, 27, 41)" fill-opacity="0.45"/><ellipse cx="59" cy="286" rx="2" ry="23" fill="rgb(3, 3, 6)" fill-opacity="0.46"/><ellipse cx="170" cy="144" rx="5" ry="4" fill="rgb(115, 63, 63)" fill-opacity="0.55"/><path d="M189,208L213,197L197,218Z" fill="rgb(196, 214, 231)" fill-opacity="0.41"/><path d="M222,110L211,112L213,102Z" fill="rgb(179, 143, 125)" fill-opacity="0.38"/></svg>
