<svg xmlns="http://www.w3.org/2000/svg" viewBox="0 0 298 337.3"><style>.a{fill:#EBEBEB;}</style><path d="M27.1 303.6L0.1 0h297.4l-27.1 303.6 -121.8 33.8L27.1 303.6z" fill="#1572B6"/><path d="M148.8 311.5l98.4-27.3 23.2-259.4H148.8V311.5z" fill="#33A9DC"/><g transform="translate(55 142)"><polygon points="187.2 -82.5 93.9 -82.5 93.8 -82.5 93.8 -45.3 146.5 -45.3 143.1 -7.2 93.8 -7.2 93.8 30.1 139.8 30.1 135.4 78.4 93.9 89.6 93.9 128.3 170.2 107.2 170.8 100.9 177.1 30.1 177.1 30.1 177.1 29.8 177.3 28.5 177.3 28.5 186.3 -72.6 " fill="#FFF"/><polygon points="93.9 89.6 52.4 78.4 49.7 48.7 29.6 48.7 12.4 48.7 17.6 107.2 93.8 128.3 94 128.3 94 89.5 " class="a"/><polygon points="93.9 -45.4 93.9 -59.4 93.9 -82.5 0.6 -82.5 1.5 -72.6 3.2 -53.7 4 -45.3 4.1 -45.3 93.9 -45.3 " class="a"/><polygon points="52.1 21.7 52.8 30.1 53 30.1 93.8 30.1 93.8 30 93.8 16 93.8 -7.2 49.5 -7.2 50.4 2.8 " class="a"/></g></svg>