<svg xmlns="http://www.w3.org/2000/svg" viewBox="0 0 298 337.4"><style>.a{fill:#EBEBEB;}</style><path d="M27.4 303.6L0.3 0h297.5l-27.1 303.6 -121.8 33.8L27.4 303.6z" fill="#E5A228"/><path d="M149 311.5l98.4-27.3 23.2-259.4H149V311.5z" fill="#F1BF26"/><polygon points="107.4 223 104.8 193.3 84.6 193.3 67.4 193.3 72.6 251.8 148.9 272.9 149 272.9 149 234.1 148.9 234.2 " class="a"/><polygon points="149 174.7 149 137.4 103.2 137.4 107.5 89.1 148.9 89.1 148.9 60.3 72.7 60.3 72.1 66.6 63.4 164.7 62.5 174.7 72.5 174.7 " class="a"/><polygon points="190.5 89.1 193.2 118.8 213.3 118.8 230.6 118.8 225.4 60.4 148.9 60.3 148.9 39.2 148.9 78 148.9 89.1 " class="a"/><polygon points="148.9 137.4 148.9 174.7 194.8 174.7 190.4 223 148.9 234.2 148.9 272.9 225.2 251.8 225.8 245.5 234.6 147.4 235.5 137.4 225.4 137.4 " fill="#FFF"/></svg>